<?xml version="1.0" encoding="utf-8"?>
<!-- Generator: Adobe Illustrator 24.3.0, SVG Export Plug-In . SVG Version: 6.00 Build 0)  -->
<svg version="1.1" id="Capa_1" xmlns="http://www.w3.org/2000/svg" xmlns:xlink="http://www.w3.org/1999/xlink" x="0px" y="0px"
	 viewBox="0 0 45.4 42.3" style="enable-background:new 0 0 45.4 42.3;" xml:space="preserve">
<style type="text/css">
	.st0{fill:#FFFFFF;}
</style>
<g>
	<path class="st0" d="M26.4,0.1c-0.5-0.3-1.1-0.2-1.6,0.2L10,12.1H3c-1.7,0-3,1.4-3,3v12.1c0,1.7,1.4,3,3,3h7L24.8,42
		c0.3,0.2,0.6,0.3,0.9,0.3c0.2,0,0.4-0.1,0.7-0.2c0.5-0.3,0.9-0.8,0.9-1.4V1.5C27.2,0.9,26.9,0.4,26.4,0.1z"/>
	<path class="st0" d="M34.9,10.5c-0.6-0.6-1.6-0.6-2.1,0c-0.6,0.6-0.6,1.6,0,2.1c2.3,2.3,3.5,5.3,3.5,8.5s-1.3,6.3-3.5,8.5
		c-0.6,0.6-0.6,1.5,0,2.1c0.3,0.3,0.7,0.4,1.1,0.4c0.4,0,0.8-0.1,1.1-0.4c2.9-2.8,4.4-6.6,4.4-10.7S37.7,13.3,34.9,10.5z"/>
	<path class="st0" d="M39.1,6.2c-0.6-0.6-1.5-0.6-2.1,0c-0.6,0.6-0.6,1.6,0,2.1c3.4,3.4,5.3,8,5.3,12.8c0,4.8-1.9,9.4-5.3,12.8
		c-0.6,0.6-0.6,1.5,0,2.1c0.3,0.3,0.7,0.4,1.1,0.4c0.4,0,0.8-0.1,1.1-0.4c4-4,6.2-9.3,6.2-14.9C45.4,15.5,43.1,10.2,39.1,6.2z"/>
</g>
</svg>
